<?xml version="1.0" encoding="utf-8"?>
<svg xmlns="http://www.w3.org/2000/svg" viewBox="0 0 500 500">
  <path d="M 127.21 434.183 L 127.21 393.252 L 147.674 372.788 L 86.28 372.788 C 75.024 372.788 65.389 368.78 57.373 360.764 C 49.358 352.75 45.35 343.114 45.35 331.858 L 45.35 106.746 C 45.35 95.49 49.358 85.852 57.373 77.839 C 65.389 69.823 75.024 65.816 86.28 65.816 L 413.719 65.816 C 424.975 65.816 434.61 69.823 442.626 77.839 C 450.64 85.852 454.649 95.49 454.649 106.746 L 454.649 331.858 C 454.649 343.114 450.64 352.75 442.626 360.764 C 434.61 368.78 424.975 372.788 413.719 372.788 L 352.324 372.788 L 372.79 393.252 L 372.79 434.183 L 127.21 434.183 Z M 86.28 331.858 L 413.719 331.858 L 413.719 106.746 L 86.28 106.746 L 86.28 331.858 Z M 86.28 331.858 L 86.28 106.746 L 86.28 331.858 Z" style="stroke-width: 1;"/>
  <rect style="stroke: rgb(0, 0, 0); stroke-width: 1;" x="92.999" y="117.145" width="158" height="91.189" rx="20" ry="20"/>
  <rect style="stroke: rgb(0, 0, 0); stroke-width: 1;" x="258.999" y="117.145" width="148" height="195.855" rx="20" ry="20"/>
  <rect style="stroke: rgb(0, 0, 0); stroke-width: 1;" x="93.295" y="222.185" width="74" height="91.189" rx="20" ry="20"/>
  <rect style="stroke: rgb(0, 0, 0); stroke-width: 1;" x="174.539" y="221.81" width="74" height="91.189" rx="20" ry="20"/>
</svg>